<svg width="128" height="128" viewBox="0 0 128 128" fill="none" xmlns="http://www.w3.org/2000/svg">
<path d="M46.2207 30.7773C44.4505 31.0618 41.5738 32.2946 40.0564 33.401C38.1281 34.8552 37.4011 35.6138 36.1366 37.6686C32.7858 42.9477 33.2916 49.7442 37.3379 54.7704C39.2662 57.1413 40.7835 58.1213 46.2207 60.5554C53.681 63.9378 53.9655 64.7281 50.9308 73.8954C49.7296 77.5308 49.6347 78.0049 49.7612 80.5022C49.9509 83.8215 50.8044 86.1607 52.7959 88.8161C54.6294 91.2186 57.506 93.2417 60.5091 94.1268C68.5385 96.5925 77.3581 90.7444 78.8754 81.988C79.5709 77.8785 78.0535 73.1684 74.9556 69.9124C72.9009 67.7628 71.2254 66.6564 67.2424 64.981C59.4659 61.6618 59.055 60.7134 61.5839 52.526C63.1645 47.4049 63.3542 46.014 62.9748 43.3587C61.7736 35.2977 54.092 29.5128 46.2207 30.7773Z" fill="white"/>
<path d="M86.6747 30.9677C79.5621 32.6432 74.3778 40.0086 75.3261 47.1529C75.8635 51.0727 78.5505 55.4351 81.8381 57.6163C82.8497 58.3117 85.4418 59.6078 87.5914 60.5562C90.1836 61.6942 91.9222 62.6741 92.7757 63.496L94.0402 64.6973L93.8505 67.2894C93.724 69.1229 93.2815 71.1144 92.3964 73.8014C90.879 78.3851 90.721 80.7876 91.7325 84.0435C94.1034 91.6935 101.817 96.1824 109.277 94.2225C111.711 93.6218 113.576 92.5154 115.789 90.3975C122.111 84.3597 121.795 74.4652 115.062 68.7119C113.671 67.5107 108.076 64.3812 107.349 64.3812C106.938 64.3812 104.788 63.2748 103.555 62.4529C101.09 60.7774 100.963 58.533 102.955 52.3688C104.598 47.3109 104.82 45.6355 104.187 42.664C103.587 39.7241 102.322 37.1952 100.489 35.3301C98.9083 33.6863 96.3478 31.9793 94.4827 31.3155C92.6176 30.6516 88.761 30.4936 86.6747 30.9677Z" fill="white"/>
<path d="M20.9252 65.2341C13.8759 66.4037 8.31222 72.8208 8.28061 79.807C8.28061 83.79 9.82958 87.4254 12.8959 90.4601C16.3416 93.9373 21.3678 95.4547 25.9515 94.3799C33.1589 92.7361 38.5329 85.0861 37.4581 78.0051C36.2252 70.039 28.4172 63.9696 20.9252 65.2341Z" fill="white"/>
</svg>
